<?xml version="1.0" encoding="UTF-8"?>
<svg version="1.1" xmlns="http://www.w3.org/2000/svg" width="500" height="500">
<path d="M0 0 C2.46352658 2.03331514 4.77314627 4.14801601 7 6.4375 C7.54914063 5.78394531 7.54914063 5.78394531 8.109375 5.1171875 C14.30174351 -1.69441786 22.88747536 -6.77651449 32.15625 -7.80078125 C42.81375936 -8.13826905 51.75404582 -4.80057271 59.80859375 2.16796875 C63.37758765 5.8641995 65.79285913 9.81925805 68 14.4375 C68.33902344 15.11039063 68.67804688 15.78328125 69.02734375 16.4765625 C72.93773012 25.81103318 72.32044751 37.91204386 69 47.3125 C66.17546627 53.68356906 62.41901275 59.07555144 58 64.4375 C57.29746094 65.29214844 56.59492188 66.14679688 55.87109375 67.02734375 C51.25841322 72.38267409 46.26738594 76.87279124 40.73046875 81.25390625 C36.68067859 84.49257964 32.84147606 87.95645873 29 91.4375 C30.83498047 91.85708984 30.83498047 91.85708984 32.70703125 92.28515625 C48.66861348 96.03866077 64.039647 100.66137559 78.2824707 108.94848633 C81.59046986 110.8501499 83.05317634 111.4375 87 111.4375 C89.18572946 110.32990663 91.26561769 109.17473112 93.375 107.9375 C126.78209037 89.37289957 166.51703675 85.8304272 203.1875 95.625 C223.50194074 101.4601179 244.53604313 111.94267394 260 126.4375 C260.63647461 127.03304687 261.27294922 127.62859375 261.92871094 128.2421875 C288.6006991 153.43171789 308.4590749 187.44842782 310.16113281 224.99169922 C310.20711832 229.09884656 310.24666055 233.20509057 310.25 237.3125 C310.25067474 238.05459717 310.25134949 238.79669434 310.25204468 239.5612793 C310.23623199 250.49124791 309.78867751 260.81342898 307 271.4375 C306.83902832 272.09959473 306.67805664 272.76168945 306.51220703 273.44384766 C303.49662926 285.75818108 298.48382777 297.04341119 293 308.4375 C292.27876953 309.99597656 292.27876953 309.99597656 291.54296875 311.5859375 C278.53287026 337.76335622 252.35483427 359.74527896 226 371.4375 C224.86933105 371.94990234 224.86933105 371.94990234 223.71582031 372.47265625 C186.95390346 388.93276276 146.71418249 389.58021946 109.19458008 375.30004883 C104.73523031 373.55252053 100.38912223 371.68491237 96.1640625 369.4296875 C95.53846436 369.0982373 94.91286621 368.76678711 94.26831055 368.42529297 C92.54049638 367.49307052 90.83012039 366.52873414 89.12109375 365.5625 C85.10576963 364.11517416 83.83951987 364.66100573 80 366.4375 C77.88414233 367.44244608 75.77903883 368.46381252 73.68286133 369.50927734 C39.63583741 386.43284697 -0.51630343 390.9984178 -37.04101562 379.12109375 C-74.55580029 366.03019182 -106.66983975 341.63499913 -124.609375 305.53515625 C-134.93073913 283.96283826 -140.23054231 262.4947988 -140.25 238.5625 C-140.25067474 237.82040283 -140.25134949 237.07830566 -140.25204468 236.3137207 C-140.23623199 225.38375209 -139.78867751 215.06157102 -137 204.4375 C-136.83902832 203.77540527 -136.67805664 203.11331055 -136.51220703 202.43115234 C-128.0213661 167.75817945 -105.75472265 133.5795387 -75.00830078 114.62353516 C-55.66954736 103.2027153 -36.87503867 96.19155595 -15 91.4375 C-15.6084375 90.96183594 -16.216875 90.48617187 -16.84375 89.99609375 C-54.55355709 59.88370367 -54.55355709 59.88370367 -57.25732422 38.39208984 C-58.25997294 26.09645021 -55.99740583 15.69804912 -48.765625 5.5078125 C-35.94378245 -9.52664889 -15.74142811 -12.04206494 0 0 Z M-70.52441406 172.73681641 C-89.06092196 194.10103117 -94.50656007 220.74289729 -93.22753906 248.33837891 C-91.17402317 276.30761793 -75.40226782 300.39531505 -54.74609375 318.40234375 C-33.54516121 334.52112073 -5.69903749 341.23054245 20.52734375 337.94140625 C29.77774959 336.54993675 38.3257713 333.91543956 47 330.4375 C45.52303113 326.24757253 43.34444096 322.77960569 40.875 319.125 C20.25238229 287.61938209 11.42642274 248.25559822 18.38110352 210.95605469 C23.5562597 187.20693514 33.68116769 165.96318042 48 146.4375 C7.16486582 126.37813584 -40.73306908 140.23106362 -70.52441406 172.73681641 Z M123 145.4375 C123 149.51748265 125.11914697 151.5219721 127.5 154.625 C144.98616236 178.31893641 153.43741662 208.43977085 153.3125 237.625 C153.31067719 238.30281525 153.30885437 238.98063049 153.30697632 239.6789856 C153.16497472 271.13164657 143.03754236 301.217242 124.25 326.546875 C122.81616189 328.33780732 122.81616189 328.33780732 123 330.4375 C149.81662681 340.00841731 177.02248394 342.43270744 203.54003906 330.14624023 C205.36968672 329.26306715 207.18523562 328.35086493 209 327.4375 C210.02867187 326.92960938 211.05734375 326.42171875 212.1171875 325.8984375 C235.60394626 313.73216634 251.37557896 292.4107377 259.28515625 267.5234375 C266.85987746 241.73137604 264.50805183 213.20397933 252.01855469 189.27099609 C238.32789496 164.62649596 215.07850626 148.05146785 188.2265625 140.28515625 C166.00360803 134.44692245 144.15416519 137.07499407 123 145.4375 Z M84 175.4375 C66.87719287 199.00654041 59.76517202 225.37134992 63.37060547 254.42382812 C65.43162639 266.76850705 69.73820397 277.66096704 76 288.4375 C76.63679687 289.56929688 77.27359375 290.70109375 77.9296875 291.8671875 C80.22331268 295.82870401 80.22331268 295.82870401 83 299.4375 C84.32 299.4375 85.64 299.4375 87 299.4375 C90.17280098 295.45544209 92.53005042 290.88414545 95 286.4375 C95.55300781 285.468125 96.10601562 284.49875 96.67578125 283.5 C108.21547608 262.03080032 111.09744478 234.37331471 104.18359375 211 C101.23349563 202.12049676 97.37724388 194.03355803 92.9375 185.8125 C92.51388184 185.017229 92.09026367 184.22195801 91.65380859 183.40258789 C91.2408252 182.65871826 90.8278418 181.91484863 90.40234375 181.1484375 C90.03616943 180.48118652 89.66999512 179.81393555 89.29272461 179.12646484 C87.75856482 177.12206118 86.30820452 176.39587554 84 175.4375 Z " fill="#FED92F" transform="translate(165,92.5625)"/>
<path d="M0 0 C1.82280842 1.58998865 3.61023023 3.22082888 5.375 4.875 C6.01147461 5.47054687 6.64794922 6.06609375 7.30371094 6.6796875 C33.9756991 31.86921789 53.8340749 65.88592782 55.53613281 103.42919922 C55.58211832 107.53634656 55.62166055 111.64259057 55.625 115.75 C55.62567474 116.49209717 55.62634949 117.23419434 55.62704468 117.9987793 C55.61123199 128.92874791 55.16367751 139.25092898 52.375 149.875 C52.21402832 150.53709473 52.05305664 151.19918945 51.88720703 151.88134766 C48.87162926 164.19568108 43.85882777 175.48091119 38.375 186.875 C37.89417969 187.91398438 37.41335938 188.95296875 36.91796875 190.0234375 C23.90787026 216.20085622 -2.27016573 238.18277896 -28.625 249.875 C-29.75566895 250.38740234 -29.75566895 250.38740234 -30.90917969 250.91015625 C-66.95764185 267.05081424 -106.7050599 268.14839449 -143.66015625 254.39453125 C-150.85271628 251.63363387 -157.82251029 248.49232394 -164.625 244.875 C-164.625 243.885 -164.625 242.895 -164.625 241.875 C-165.285 241.875 -165.945 241.875 -166.625 241.875 C-165.25647058 236.90741593 -162.2807948 234.68466326 -158.25 231.8125 C-153.6937429 228.51647393 -153.6937429 228.51647393 -149.5234375 224.75390625 C-147.625 222.875 -147.625 222.875 -145.15625 221.41796875 C-141.41949185 219.14016093 -138.82660365 215.9619815 -135.90625 212.73828125 C-133.625 210.875 -133.625 210.875 -131.28125 210.48046875 C-127.95431758 210.97461607 -124.85584896 211.93765493 -121.625 212.875 C-95.07779947 218.21012341 -70.04528086 217.16564685 -45.625 204.875 C-44.59632813 204.36710938 -43.56765625 203.85921875 -42.5078125 203.3359375 C-19.31738772 191.32316898 -4.13816155 170.4981623 3.66015625 145.9609375 C11.23395726 120.17200933 8.88380856 91.6446431 -3.60205078 67.71289062 C-17.12501255 43.41674356 -39.91015223 27.38378794 -66.3984375 19.72265625 C-78.17292228 16.6293594 -89.53626834 16.57960337 -101.625 16.875 C-102.87925781 16.89304688 -104.13351562 16.91109375 -105.42578125 16.9296875 C-114.86512381 17.2998578 -123.80687617 19.54877468 -132.625 22.875 C-133.12 23.865 -133.12 23.865 -133.625 24.875 C-135.12201518 25.51699482 -136.64916593 26.08951883 -138.1875 26.625 C-142.54170516 28.3025408 -145.87637122 30.26312676 -149.4921875 33.18359375 C-151.97375334 35.15157545 -154.57513379 36.89728174 -157.1875 38.6875 C-161.77350176 41.97773395 -164.95432019 45.41462576 -168.08984375 50.08984375 C-169.869497 52.1593133 -170.96349741 52.5128517 -173.625 52.875 C-173.69074219 54.00550781 -173.75648438 55.13601563 -173.82421875 56.30078125 C-174.48398471 61.55695523 -176.8330965 65.52519875 -179.4375 70.0625 C-192.15200463 93.2108001 -194.51479829 120.65895007 -187.25 146.08203125 C-184.12879694 155.83186969 -179.22156307 164.6774602 -173.58984375 173.19140625 C-172.00376473 175.95901782 -171.33469865 178.77813316 -170.625 181.875 C-174.11698926 185.46969482 -177.77031189 188.66275991 -181.625 191.875 C-182.388125 192.679375 -183.15125 193.48375 -183.9375 194.3125 C-187.51386026 197.72251792 -191.47534895 200.21922333 -195.625 202.875 C-196.3571875 203.390625 -197.089375 203.90625 -197.84375 204.4375 C-198.5346875 204.911875 -199.225625 205.38625 -199.9375 205.875 C-200.55238281 206.308125 -201.16726562 206.74125 -201.80078125 207.1875 C-203.625 207.875 -203.625 207.875 -205.80859375 207.1328125 C-207.625 205.875 -207.625 205.875 -208.375 203.75 C-208.49875 202.821875 -208.49875 202.821875 -208.625 201.875 C-209.285 201.875 -209.945 201.875 -210.625 201.875 C-211.6015625 200.1171875 -212.578125 198.359375 -213.5546875 196.6015625 C-214.63397274 194.7137386 -214.63397274 194.7137386 -216.625 192.875 C-216.625 191.555 -216.625 190.235 -216.625 188.875 C-217.285 188.875 -217.945 188.875 -218.625 188.875 C-220.0856285 186.22761084 -220.625 184.98051666 -220.625 181.875 C-221.285 181.875 -221.945 181.875 -222.625 181.875 C-222.625 180.885 -222.625 179.895 -222.625 178.875 C-223.615 178.545 -224.605 178.215 -225.625 177.875 C-240.57251175 151.21056775 -243.60431136 112.05107422 -235.625 82.875 C-231.65045844 68.8656526 -226.71136605 55.60366171 -219.625 42.875 C-219.12129883 41.91037842 -219.12129883 41.91037842 -218.60742188 40.92626953 C-215.96315895 35.98771965 -215.96315895 35.98771965 -212.625 34.875 C-211.965 33.864375 -211.305 32.85375 -210.625 31.8125 C-209.965 30.843125 -209.305 29.87375 -208.625 28.875 C-207.635 28.875 -206.645 28.875 -205.625 28.875 C-205.625 27.225 -205.625 25.575 -205.625 23.875 C-204.965 23.875 -204.305 23.875 -203.625 23.875 C-203.625 23.215 -203.625 22.555 -203.625 21.875 C-202.965 21.875 -202.305 21.875 -201.625 21.875 C-201.563125 21.318125 -201.50125 20.76125 -201.4375 20.1875 C-199.5877864 14.92293052 -193.58550716 10.90485824 -189.5 7.125 C-188.71302734 6.38443359 -188.71302734 6.38443359 -187.91015625 5.62890625 C-185.48930345 3.39191568 -183.79043223 1.93014408 -180.625 0.875 C-180.191875 0.441875 -179.75875 0.00875 -179.3125 -0.4375 C-177.625 -2.125 -177.625 -2.125 -174.6875 -4.0625 C-171.68740224 -5.9208937 -171.68740224 -5.9208937 -169.83203125 -8.01953125 C-126.58923449 -49.272394 -42.08265248 -32.91487342 0 0 Z " fill="#FABE03" transform="translate(419.625,214.125)"/>
<path d="M0 0 C2.46352658 2.03331514 4.77314627 4.14801601 7 6.4375 C7.36609375 6.00179687 7.7321875 5.56609375 8.109375 5.1171875 C14.30174351 -1.69441786 22.88747536 -6.77651449 32.15625 -7.80078125 C42.81375936 -8.13826905 51.75404582 -4.80057271 59.80859375 2.16796875 C63.37758765 5.8641995 65.79285913 9.81925805 68 14.4375 C68.33902344 15.11039063 68.67804688 15.78328125 69.02734375 16.4765625 C72.93773012 25.81103318 72.32044751 37.91204386 69 47.3125 C66.17546627 53.68356906 62.41901275 59.07555144 58 64.4375 C57.29746094 65.29214844 56.59492188 66.14679688 55.87109375 67.02734375 C51.25649988 72.38489549 46.26420138 76.8775757 40.72265625 81.2578125 C37.28450268 84.01030847 34.03148608 86.9404494 30.77734375 89.90625 C25.4745223 94.47483463 16.18857886 92.64703539 9.5090332 92.58007812 C7.56081587 92.56845565 5.61240725 92.57434515 3.66430664 92.59863281 C-14.57074823 92.8161422 -14.57074823 92.8161422 -21.34375 87.31640625 C-22.93109068 85.72449837 -24.48641913 84.09969556 -26 82.4375 C-27.39449793 81.19997558 -28.80131517 79.97613007 -30.22265625 78.76953125 C-42.77564847 67.40168403 -55.98041139 54.0510735 -57.43359375 36.23046875 C-57.99846249 23.87602162 -55.17133042 13.01892726 -47 3.4375 C-33.29929609 -9.41316023 -15.3285056 -11.72618256 0 0 Z " fill="#EC6485" transform="translate(165,92.5625)"/>
<path d="M0 0 C6.25125368 5.49175557 9.90358374 11.74291827 11 20 C11.43575852 29.81976762 11.05615876 39.64104654 10.3125 49.4375 C10.23261841 50.79597046 10.23261841 50.79597046 10.15112305 52.18188477 C10.07676025 53.02807373 10.00239746 53.8742627 9.92578125 54.74609375 C9.86817627 55.49560303 9.81057129 56.2451123 9.7512207 57.01733398 C8.60579423 60.04041112 6.88859819 60.69050884 4 62 C1.14916992 62.50073242 1.14916992 62.50073242 -1.95703125 62.66796875 C-3.10123535 62.73161621 -4.24543945 62.79526367 -5.42431641 62.86083984 C-6.60429199 62.9067627 -7.78426758 62.95268555 -9 63 C-10.12970215 63.04463379 -11.2594043 63.08926758 -12.42333984 63.13525391 C-15.84549121 63.23892568 -19.26396062 63.28330552 -22.6875 63.3125 C-24.40549805 63.35600586 -24.40549805 63.35600586 -26.15820312 63.40039062 C-36.17052733 63.47481042 -43.87382741 61.33946045 -51.52734375 54.7578125 C-55.39524284 50.14095682 -56.41405254 45.93598678 -56.375 40 C-56.38273437 38.824375 -56.39046875 37.64875 -56.3984375 36.4375 C-55.66556399 30.11466973 -52.74986677 26.08709466 -48 22 C-43.12123345 18.855906 -39.62719476 18.7089382 -34 19 C-33.97421875 18.34773438 -33.9484375 17.69546875 -33.921875 17.0234375 C-33.43247687 9.48225724 -31.67861755 5.56215592 -26.125 0.25 C-17.6402936 -5.85898861 -8.80412782 -5.05919384 0 0 Z " fill="#FC6F6C" transform="translate(389,31)"/>
<path d="M0 0 C3.26818211 2.53924934 5.1797206 4.9845107 6.15625 8.98828125 C6.28125 12.30078125 6.28125 12.30078125 6.15625 14.98828125 C7.703125 14.86453125 7.703125 14.86453125 9.28125 14.73828125 C14.69883498 15.08780286 17.48873136 17.09842679 21.03125 21.11328125 C22.72087699 25.43121689 22.81685252 29.41544382 22.15625 33.98828125 C19.60815706 39.08446713 16.13979146 42.35025849 11.1640625 45.08203125 C6.61751581 46.45189986 2.18992006 46.27622769 -2.53125 46.23828125 C-3.94567383 46.24988281 -3.94567383 46.24988281 -5.38867188 46.26171875 C-11.60856664 46.24461938 -17.89182143 45.95609 -23.84375 43.98828125 C-28.05353373 35.5687138 -27.22816685 18.93529008 -24.78125 9.98828125 C-22.60342432 4.44566329 -18.41254262 1.54307678 -13.46875 -1.44921875 C-8.85134126 -2.43866348 -4.20923002 -2.30972579 0 0 Z " fill="#EA6787" transform="translate(452.84375,100.01171875)"/>
<path d="M0 0 C5.42579494 1.56573422 8.6833642 5.67599019 12.56103516 9.62304688 C14.009246 11.09051843 15.48445919 12.52623931 16.96435547 13.96166992 C17.88474609 14.8852832 18.80513672 15.80889648 19.75341797 16.76049805 C20.59501465 17.60249756 21.43661133 18.44449707 22.30371094 19.31201172 C24.52654913 22.45733073 24.64772318 24.13071341 24.13623047 27.9050293 C22.44873047 29.8425293 22.44873047 29.8425293 20.13623047 30.9050293 C13.67631422 30.47260599 10.11484729 25.59113026 5.78686523 21.24194336 C4.32936224 19.78565637 2.84505721 18.36117796 1.35693359 16.9362793 C0.43203125 16.01588867 -0.49287109 15.09549805 -1.44580078 14.1472168 C-2.29376221 13.3104541 -3.14172363 12.47369141 -4.01538086 11.61157227 C-6.39074092 8.13340008 -6.44416954 6.03292952 -5.86376953 1.9050293 C-2.86376953 -0.0949707 -2.86376953 -0.0949707 0 0 Z " fill="#F5BF1E" transform="translate(84.86376953125,32.094970703125)"/>
<path d="M0 0 C1.4342285 2.86845699 1.33499096 4.81709967 1 8 C-0.83251953 10.59301758 -0.83251953 10.59301758 -3.3828125 13.14453125 C-4.30320312 14.06814453 -5.22359375 14.99175781 -6.171875 15.94335938 C-6.65720703 16.41410889 -7.14253906 16.8848584 -7.64257812 17.36987305 C-9.11907742 18.80673641 -10.56401165 20.27059864 -12.0078125 21.74023438 C-20.03438937 29.67205304 -20.03438937 29.67205304 -26 30 C-27.875 28.9375 -27.875 28.9375 -29 27 C-29.48075301 23.1875555 -29.40285346 21.55095372 -27.10400391 18.40698242 C-26.23694824 17.56498291 -25.36989258 16.7229834 -24.4765625 15.85546875 C-23.538125 14.93185547 -22.5996875 14.00824219 -21.6328125 13.05664062 C-20.63031792 12.10014555 -19.62771249 11.14376664 -18.625 10.1875 C-17.62889465 9.21292944 -16.63408738 8.23703025 -15.640625 7.25976562 C-6.60584661 -1.54604921 -6.60584661 -1.54604921 0 0 Z " fill="#FBBD03" transform="translate(264,33)"/>
<path d="M0 0 C1.01126953 -0.00386719 2.02253906 -0.00773437 3.06445312 -0.01171875 C4.11439453 -0.00011719 5.16433594 0.01148437 6.24609375 0.0234375 C7.29990234 0.01183594 8.35371094 0.00023438 9.43945312 -0.01171875 C10.44943359 -0.00785156 11.45941406 -0.00398438 12.5 0 C13.88360718 0.00507568 13.88360718 0.00507568 15.29516602 0.01025391 C17.68359375 0.3984375 17.68359375 0.3984375 19.48413086 1.70068359 C21.48388035 4.53118593 21.04710839 7.06621998 20.68359375 10.3984375 C16.12298942 13.43884039 11.61011361 12.72734123 6.24609375 12.7109375 C5.19615234 12.72705078 4.14621094 12.74316406 3.06445312 12.75976562 C2.05318359 12.76041016 1.04191406 12.76105469 0 12.76171875 C-0.92353271 12.76469971 -1.84706543 12.76768066 -2.79858398 12.77075195 C-5.79472339 12.32770797 -7.16433367 11.50721504 -9.31640625 9.3984375 C-9.81640625 6.3984375 -9.81640625 6.3984375 -9.31640625 3.3984375 C-6.32652971 0.47257757 -4.11285352 0.01506934 0 0 Z " fill="#F8BD13" transform="translate(273.31640625,89.6015625)"/>
<path d="M0 0 C2.375 0.875 2.375 0.875 4.375 2.875 C4.83315988 7.00251148 4.69900858 11.16250768 4.6875 15.3125 C4.70361328 16.47072266 4.71972656 17.62894531 4.73632812 18.82226562 C4.73697266 19.93150391 4.73761719 21.04074219 4.73828125 22.18359375 C4.74126221 23.20251709 4.74424316 24.22144043 4.74731445 25.27124023 C4.375 27.875 4.375 27.875 3.04370117 29.74243164 C1.375 30.875 1.375 30.875 -1.6875 30.6875 C-4.625 29.875 -4.625 29.875 -6.625 27.875 C-7.10846287 23.93660587 -6.99539526 19.96468422 -7 16 C-7.02449219 14.89785156 -7.04898438 13.79570313 -7.07421875 12.66015625 C-7.07808594 11.59925781 -7.08195313 10.53835937 -7.0859375 9.4453125 C-7.09415527 8.47352051 -7.10237305 7.50172852 -7.11083984 6.50048828 C-6.34739995 2.37484376 -4.33108785 -0.20624228 0 0 Z " fill="#F9BA0E" transform="translate(172.625,22.125)"/>
<path d="M0 0 C1.27520508 -0.00386719 1.27520508 -0.00386719 2.57617188 -0.0078125 C6.19705967 0.04898574 8.75892646 0.14361939 11.99609375 1.84375 C13.4375 3.5 13.4375 3.5 13.9375 6.5 C13.4375 9.5 13.4375 9.5 11.69750977 11.16479492 C9.1350215 12.67870313 7.72778518 12.87430481 4.77734375 12.86328125 C3.90142578 12.86263672 3.02550781 12.86199219 2.12304688 12.86132812 C0.76276367 12.8371582 0.76276367 12.8371582 -0.625 12.8125 C-1.53572266 12.81572266 -2.44644531 12.81894531 -3.38476562 12.82226562 C-10.16150107 12.76733262 -10.16150107 12.76733262 -13.5625 10.5 C-14.5625 8.1875 -14.5625 8.1875 -14.5625 5.5 C-10.40902223 -0.25687371 -6.56327474 -0.21994218 0 0 Z " fill="#FABD05" transform="translate(66.5625,89.5)"/>
<path d="M0 0 C6.07687361 6.07687361 6.03720808 15.99437705 6.0625 24.0625 C6.041875 25.361875 6.02125 26.66125 6 28 C6.66 28 7.32 28 8 28 C8.02698422 30.43757413 8.04683099 32.87484915 8.0625 35.3125 C8.07087891 36.00279297 8.07925781 36.69308594 8.08789062 37.40429688 C8.10307906 40.5483025 8.00193327 42.99420019 7 46 C6.97072083 48.58075001 7.065481 51.1437024 7.16015625 53.72265625 C7 56 7 56 5 58 C4.60235737 59.98821313 4.26224651 61.98944339 4 64 C3.34 64 2.68 64 2 64 C2 65.98 2 67.96 2 70 C1.34 70 0.68 70 0 70 C-0.33 70.99 -0.66 71.98 -1 73 C-2.69064725 69.6187055 -0.71185641 66.18978492 0.375 62.75 C0.84456192 61.24585384 1.31077478 59.7406576 1.7734375 58.234375 C1.98403809 57.56631836 2.19463867 56.89826172 2.41162109 56.20996094 C6.60805157 40.44809844 5.11790449 21.86187566 0.875 6.28125 C0 3 0 3 0 0 Z " fill="#F3BD21" transform="translate(423,296)"/>
<path d="M0 0 C3.22693597 3.22693597 3.78503515 7.49095425 5 11.8125 C5.26039063 12.69615234 5.52078125 13.57980469 5.7890625 14.49023438 C9.22184476 26.5483155 10.31410246 38.22908487 10.20581055 50.6953125 C10.18734589 52.89334561 10.18530318 55.09095916 10.18554688 57.2890625 C10.1636858 63.61933441 10.01087647 69.73307006 9 76 C8.67 76 8.34 76 8 76 C7.98541748 74.78642822 7.97083496 73.57285645 7.95581055 72.32250977 C7.89697942 67.73548742 7.81976852 63.14891355 7.73754883 58.56225586 C7.704692 56.59292993 7.67654404 54.62351868 7.65356445 52.65405273 C7.40983371 30.25799419 7.40983371 30.25799419 1 9 C0.67 9 0.34 9 0 9 C0 6.03 0 3.06 0 0 Z " fill="#F6C329" transform="translate(465,278)"/>
<path d="M0 0 C0.89436768 -0.00191345 1.78873535 -0.0038269 2.71020508 -0.00579834 C4.58577763 -0.00714867 6.46135991 -0.00353355 8.33691406 0.00488281 C11.1805555 0.01559883 14.02356532 0.00494797 16.8671875 -0.0078125 C18.70312637 -0.0064907 20.53906485 -0.00392789 22.375 0 C23.21071533 -0.00404846 24.04643066 -0.00809692 24.9074707 -0.01226807 C30.85932605 0.03417979 36.39445315 0.91945355 42.1875 2.265625 C42.1875 2.595625 42.1875 2.925625 42.1875 3.265625 C41.56189178 3.26340439 40.93628357 3.26118378 40.29171753 3.25889587 C33.77033053 3.23674297 27.24895424 3.22167661 20.72753906 3.21069336 C18.29491746 3.20566996 15.86229886 3.19885009 13.4296875 3.19018555 C9.92967993 3.17803274 6.42971235 3.17237668 2.9296875 3.16796875 C1.84509247 3.16280746 0.76049744 3.15764618 -0.35696411 3.15232849 C-5.29978224 3.15196269 -9.95013272 3.26339793 -14.8125 4.265625 C-16.43644748 4.3277025 -18.06255297 4.35274541 -19.6875 4.328125 C-20.46867188 4.31910156 -21.24984375 4.31007812 -22.0546875 4.30078125 C-22.63476562 4.28917969 -23.21484375 4.27757812 -23.8125 4.265625 C-16.47692267 0.27346873 -8.18964914 -0.03967318 0 0 Z " fill="#F9C253" transform="translate(160.8125,183.734375)"/>
<path d="M0 0 C0 0.33 0 0.66 0 1 C-4.95 1 -9.9 1 -15 1 C-15 0.34 -15 -0.32 -15 -1 C-19.23603463 -0.88184693 -23.47183326 -0.75760568 -27.70751953 -0.62768555 C-29.1488762 -0.58433769 -30.59028418 -0.54266248 -32.03173828 -0.50268555 C-34.10204541 -0.44497912 -36.17209432 -0.38128629 -38.2421875 -0.31640625 C-39.4885498 -0.27974854 -40.73491211 -0.24309082 -42.01904297 -0.20532227 C-44.92636942 -0.19710521 -44.92636942 -0.19710521 -47 1 C-49.55157655 1.0716735 -52.07472971 1.09308442 -54.625 1.0625 C-55.33140625 1.05798828 -56.0378125 1.05347656 -56.765625 1.04882812 C-58.51045275 1.03703875 -60.255237 1.01910324 -62 1 C-62 0.67 -62 0.34 -62 0 C-40.59265281 -3.61087784 -21.40734719 -3.61087784 0 0 Z " fill="#F4C538" transform="translate(359,186)"/>
<path d="M0 0 C-0.66 2.31 -1.32 4.62 -2 7 C-2.639375 7.103125 -3.27875 7.20625 -3.9375 7.3125 C-4.618125 7.539375 -5.29875 7.76625 -6 8 C-6.33 8.99 -6.66 9.98 -7 11 C-7.66 11 -8.32 11 -9 11 C-9.33 11.99 -9.66 12.98 -10 14 C-10.99 14 -11.98 14 -13 14 C-13.33 13.34 -13.66 12.68 -14 12 C-14.66 12 -15.32 12 -16 12 C-15.1875 9.0625 -15.1875 9.0625 -14 6 C-13.01 5.67 -12.02 5.34 -11 5 C-10.690625 4.360625 -10.38125 3.72125 -10.0625 3.0625 C-9 1 -9 1 -7.1875 -0.3125 C-4.45808824 -1.17031512 -2.72321308 -0.75644808 0 0 Z " fill="#FABE02" transform="translate(264,35)"/>
<path d="M0 0 C0.66 0 1.32 0 2 0 C1.86722656 0.72445313 1.73445313 1.44890625 1.59765625 2.1953125 C1.42105469 3.16210938 1.24445313 4.12890625 1.0625 5.125 C0.88847656 6.07632812 0.71445313 7.02765625 0.53515625 8.0078125 C0.35855469 8.99523437 0.18195313 9.98265625 0 11 C-0.17329834 11.92433838 -0.34659668 12.84867676 -0.52514648 13.80102539 C-0.99669498 16.97773486 -1.12934001 19.96645798 -1.1328125 23.17578125 C-1.13410156 24.33400391 -1.13539062 25.49222656 -1.13671875 26.68554688 C-1.13285156 27.88244141 -1.12898438 29.07933594 -1.125 30.3125 C-1.12886719 31.49779297 -1.13273437 32.68308594 -1.13671875 33.90429688 C-1.12956323 40.3550025 -0.86344924 46.60636398 0 53 C-0.99 52.67 -1.98 52.34 -3 52 C-6.57496709 12.29232978 -6.57496709 12.29232978 0 0 Z " fill="#F7DC5E" transform="translate(74,300)"/>
<path d="M0 0 C0.99 0.495 0.99 0.495 2 1 C-2.05042069 3.83529448 -6.18277665 5.05620778 -10.890625 6.3515625 C-12.96522429 6.80918505 -12.96522429 6.80918505 -14 8 C-21.90009523 9.33036947 -30.07952581 9.10473709 -38.0625 9.125 C-39.06676025 9.12959229 -40.07102051 9.13418457 -41.10571289 9.13891602 C-46.09872703 9.12873035 -51.07565956 9.00581935 -56.05859375 8.6796875 C-56.93700928 8.62280762 -57.8154248 8.56592773 -58.72045898 8.50732422 C-61.35786552 7.92035509 -62.31375746 7.06330559 -64 5 C-62.48986328 5.2165625 -62.48986328 5.2165625 -60.94921875 5.4375 C-41.66492526 8.05334321 -21.96778133 8.58693828 -3.54296875 1.30078125 C-2.37378906 0.87152344 -1.20460938 0.44226563 0 0 Z " fill="#F0C23D" transform="translate(366,423)"/>
<path d="M0 0 C1.29505842 3.88517525 0.23527442 6.52947888 -0.875 10.3125 C-2.7618448 16.89043137 -4.12501606 23.04987121 -4.1328125 29.921875 C-4.13410156 31.03046875 -4.13539063 32.1390625 -4.13671875 33.28125 C-4.13285156 34.4259375 -4.12898437 35.570625 -4.125 36.75 C-4.12886719 37.87921875 -4.13273438 39.0084375 -4.13671875 40.171875 C-4.12899705 46.84342459 -3.82442573 53.37830271 -3 60 C-8.03696405 54.96303595 -7.23726443 44.69694558 -7.3125 37.9375 C-7.29529935 28.48466734 -5.80732721 19.25802358 -4 10 C-3.84241211 9.16597656 -3.68482422 8.33195312 -3.52246094 7.47265625 C-3.3577832 6.65667969 -3.19310547 5.84070313 -3.0234375 5 C-2.80179932 3.88625 -2.80179932 3.88625 -2.57568359 2.75 C-2.38570801 2.1725 -2.19573242 1.595 -2 1 C-1.34 0.67 -0.68 0.34 0 0 Z " fill="#F5C842" transform="translate(233,294)"/>
<path d="M0 0 C2.475 0.99 2.475 0.99 5 2 C5 2.66 5 3.32 5 4 C7.76033211 4.77189787 10.26317615 5.1419058 13.12597656 5.20532227 C14.32676849 5.2352401 14.32676849 5.2352401 15.55181885 5.26576233 C16.83327789 5.29083107 16.83327789 5.29083107 18.140625 5.31640625 C19.02280701 5.33718735 19.90498901 5.35796844 20.81390381 5.37937927 C23.62585831 5.44464867 26.43790445 5.50365447 29.25 5.5625 C31.15886356 5.60570673 33.06771793 5.64932171 34.9765625 5.69335938 C39.65094826 5.80030687 44.32542602 5.90163785 49 6 C49.33 5.01 49.66 4.02 50 3 C50.99 3 51.98 3 53 3 C53 2.01 53 1.02 53 0 C54.65 0 56.3 0 58 0 C55.32230628 3.66943213 53.14662031 6.09926516 49 8 C45.85010713 8.4054539 42.74142175 8.35264421 39.5703125 8.28515625 C38.66175507 8.2729454 37.75319763 8.26073456 36.81710815 8.24815369 C34.89891631 8.21647091 32.98084634 8.17645569 31.06298828 8.12866211 C28.14172961 8.06287674 25.22268448 8.0448101 22.30078125 8.02929688 C20.43223183 7.99250605 18.56373557 7.95288485 16.6953125 7.91015625 C15.39498581 7.9096804 15.39498581 7.9096804 14.06838989 7.90919495 C8.33567813 7.7057436 5.34731223 6.34917403 1.19039917 2.37815857 C0 1 0 1 0 0 Z " fill="#E47874" transform="translate(143,177)"/>
<path d="M0 0 C2 1 2 1 3.11328125 3.48046875 C4.21274407 7.84441589 4.25572156 11.83501146 4.1875 16.3125 C4.18685547 17.13556641 4.18621094 17.95863281 4.18554688 18.80664062 C4.14063798 24.85936202 4.14063798 24.85936202 3 26 C2.70569228 27.33630117 2.46338167 28.68419222 2.24609375 30.03515625 C2.11396484 30.84404297 1.98183594 31.65292969 1.84570312 32.48632812 C1.71099609 33.33646484 1.57628906 34.18660156 1.4375 35.0625 C1.29892578 35.91650391 1.16035156 36.77050781 1.01757812 37.65039062 C0.67476995 39.76634451 0.33692384 41.88310118 0 44 C-0.66 44 -1.32 44 -2 44 C-1.09426523 36.4953405 -1.09426523 36.4953405 -0.48632812 33.30078125 C0.03438473 29.76662575 0.11291929 26.42311295 0.09765625 22.8515625 C0.0962413 22.19417084 0.09482635 21.53677917 0.09336853 20.85946655 C0.08781762 18.78126269 0.07527465 16.70317073 0.0625 14.625 C0.05747864 13.20703282 0.05291685 11.78906393 0.04882812 10.37109375 C0.03786437 6.91402678 0.02063421 3.45702433 0 0 Z " fill="#F9DD5A" transform="translate(271,314)"/>
<path d="M0 0 C2.00720923 0.28674418 4.0085944 0.61866701 6 1 C6 2.32 6 3.64 6 5 C7.32 5.33 8.64 5.66 10 6 C9.67 7.32 9.34 8.64 9 10 C8.34 10 7.68 10 7 10 C7 10.99 7 11.98 7 13 C7.66 13 8.32 13 9 13 C8.67 13.99 8.34 14.98 8 16 C7.01 15.34 6.02 14.68 5 14 C5 13.34 5 12.68 5 12 C4.34 12 3.68 12 3 12 C1.05174957 8.35761877 -0.52760335 5.13347071 -1 1 C-0.67 0.67 -0.34 0.34 0 0 Z " fill="#FABE03" transform="translate(87,38)"/>
<path d="M0 0 C0.66 0.33 1.32 0.66 2 1 C0.35 1.66 -1.3 2.32 -3 3 C-3 3.66 -3 4.32 -3 5 C-11.45579128 5.84031519 -19.81746125 6.1546511 -28.3125 6.125 C-30.00342773 6.13080078 -30.00342773 6.13080078 -31.72851562 6.13671875 C-42.95840474 6.12351488 -42.95840474 6.12351488 -48 5 C-48.33 4.34 -48.66 3.68 -49 3 C-47.1128125 3.2475 -47.1128125 3.2475 -45.1875 3.5 C-30.14631653 4.94463344 -14.47087016 4.82362339 0 0 Z " fill="#F6DB60" transform="translate(201,426)"/>
<path d="M0 0 C-0.33 0.66 -0.66 1.32 -1 2 C-3.64860427 2.59355614 -6.29197322 2.74209269 -9 3 C-9.66 4.65 -10.32 6.3 -11 8 C-11.99 8 -12.98 8 -14 8 C-14.103125 8.639375 -14.20625 9.27875 -14.3125 9.9375 C-14.539375 10.618125 -14.76625 11.29875 -15 12 C-15.99 12.33 -16.98 12.66 -18 13 C-18.33 13.99 -18.66 14.98 -19 16 C-21.875 18.75 -21.875 18.75 -25 21 C-25.99 20.67 -26.98 20.34 -28 20 C-25.19151323 17.16681071 -22.379765 14.33690379 -19.56494141 11.51000977 C-18.60765619 10.54769305 -17.65127006 9.58448108 -16.69580078 8.62036133 C-15.32300212 7.23544555 -13.94670528 5.85400009 -12.5703125 4.47265625 C-11.74289551 3.64000244 -10.91547852 2.80734863 -10.06298828 1.94946289 C-6.46881767 -1.44692201 -4.72276983 -0.92402018 0 0 Z " fill="#F1BF2F" transform="translate(264,33)"/>
<path d="M0 0 C0.9489917 -0.00418945 1.8979834 -0.00837891 2.87573242 -0.01269531 C4.3816394 0.00132324 4.3816394 0.00132324 5.91796875 0.015625 C7.45771362 0.02577637 7.45771362 0.02577637 9.02856445 0.03613281 C30.87577431 0.33055576 30.87577431 0.33055576 35.5 4.34375 C36.02980469 4.97796875 36.55960937 5.6121875 37.10546875 6.265625 C35.26662109 5.8325 35.26662109 5.8325 33.390625 5.390625 C19.18615762 2.25981027 5.61377423 1.79615899 -8.89453125 2.265625 C-5.80587106 0.4726976 -3.55671117 0.00947103 0 0 Z " fill="#F3C73A" transform="translate(321.89453125,228.734375)"/>
<path d="M0 0 C0.33 0 0.66 0 1 0 C1.47253071 3.01869131 1.59856488 5.14699037 -0.20263672 7.71386719 C-1.88599486 9.51238361 -3.6297549 11.2016527 -5.4375 12.875 C-6.04916016 13.46796875 -6.66082031 14.0609375 -7.29101562 14.671875 C-11.80363443 19 -11.80363443 19 -13 19 C-13.25 16.6875 -13.25 16.6875 -13 14 C-10.95575462 12.02389614 -9.8823175 11 -7 11 C-6.67 9.35 -6.34 7.7 -6 6 C-4.68 6.33 -3.36 6.66 -2 7 C-1.855625 6.030625 -1.71125 5.06125 -1.5625 4.0625 C-1 1 -1 1 0 0 Z " fill="#F0C02E" transform="translate(264,35)"/>
<path d="M0 0 C0 0.66 0 1.32 0 2 C-0.66 2 -1.32 2 -2 2 C-2.26683594 2.59296875 -2.53367187 3.1859375 -2.80859375 3.796875 C-4.01350054 6.02496494 -5.29172889 7.45747495 -7.0625 9.25 C-10.46508283 13.06652235 -10.82324965 15.96261508 -11 21 C-11.66 21 -12.32 21 -13 21 C-12.71252772 13.72695137 -11.94059111 8.79949578 -6.47265625 3.52734375 C-2.454039 0 -2.454039 0 0 0 Z " fill="#F07B7A" transform="translate(368,29)"/>
<path d="M0 0 C6.04801071 0.54981916 11.30601106 1.90429574 17 4 C12.77235901 5.41899987 9.64201694 4.36051961 5.4375 3.27734375 C2.45351274 2.93781956 1.47008648 3.32248064 -1 5 C-2.62859293 6.49377563 -4.21016976 8.03988064 -5.75 9.625 C-6.54921875 10.44226563 -7.3484375 11.25953125 -8.171875 12.1015625 C-8.77515625 12.72804688 -9.3784375 13.35453125 -10 14 C-10.66 13.67 -11.32 13.34 -12 13 C-11.21753906 12.22914063 -10.43507813 11.45828125 -9.62890625 10.6640625 C-8.60663943 9.65117427 -7.58451119 8.63814616 -6.5625 7.625 C-6.04623047 7.11710937 -5.52996094 6.60921875 -4.99804688 6.0859375 C-2.142867 3.31431064 -2.142867 3.31431064 0 0 Z " fill="#F5C429" transform="translate(285,423)"/>
<path d="M0 0 C6.20035285 6.20035285 6.03894905 16.47723312 6.09765625 24.69140625 C6.09111091 26.64846164 6.07933714 28.60550609 6.0625 30.5625 C6.05798828 31.57119141 6.05347656 32.57988281 6.04882812 33.61914062 C6.03716769 36.07949147 6.02080378 38.53971239 6 41 C5.67 41 5.34 41 5 41 C4.96132813 39.14761719 4.96132813 39.14761719 4.921875 37.2578125 C4.60059788 26.65566765 3.418934 16.81767723 0.83984375 6.52734375 C0 3 0 3 0 0 Z " fill="#F4D159" transform="translate(423,296)"/>
<path d="M0 0 C3.41893614 3.78966416 4.68524139 8.24495683 6.25 13 C6.53101563 13.80695313 6.81203125 14.61390625 7.1015625 15.4453125 C7.36195313 16.22648437 7.62234375 17.00765625 7.890625 17.8125 C8.12813477 18.52019531 8.36564453 19.22789062 8.61035156 19.95703125 C9.0550604 22.28868763 8.73223646 23.76435524 8 26 C6.74335022 23.09399739 6 21.20395416 6 18 C4.68 17.34 3.36 16.68 2 16 C2.04125 14.7625 2.0825 13.525 2.125 12.25 C2.13680417 8.89761691 1.67658519 6.93402409 0 4 C0 2.68 0 1.36 0 0 Z " fill="#FADC59" transform="translate(306,271)"/>
<path d="M0 0 C0.66 0 1.32 0 2 0 C2 0.99 2 1.98 2 3 C2.66 3 3.32 3 4 3 C5.4606285 5.64738916 6 6.89448334 6 10 C6.66 10 7.32 10 8 10 C8.2475 10.721875 8.495 11.44375 8.75 12.1875 C9.90585515 15.11567485 9.90585515 15.11567485 12.125 17.625 C14 20 14 20 14 23 C14.66 23 15.32 23 16 23 C15.67 23.99 15.34 24.98 15 26 C0 6.55844156 0 6.55844156 0 0 Z " fill="#F1C22E" transform="translate(195,393)"/>
<path d="M0 0 C0.99 0.33 1.98 0.66 3 1 C2.1875 2.9375 2.1875 2.9375 1 5 C0.01 5.33 -0.98 5.66 -2 6 C-2 6.99 -2 7.98 -2 9 C-1.34 9 -0.68 9 0 9 C-0.33 10.32 -0.66 11.64 -1 13 C-3.31 10.03 -5.62 7.06 -8 4 C-6 3 -6 3 -4 2.5625 C-1.79104906 2.11721638 -1.79104906 2.11721638 0 0 Z " fill="#FADD51" transform="translate(56,408)"/>
<path d="M0 0 C0.66 0 1.32 0 2 0 C2 0.66 2 1.32 2 2 C1.01 2.495 1.01 2.495 0 3 C0 4.32 0 5.64 0 7 C1.65 7.33 3.3 7.66 5 8 C5 8.66 5 9.32 5 10 C10.28 10 15.56 10 21 10 C21 10.33 21 10.66 21 11 C17.72924117 11.0580476 14.45861476 11.09361165 11.1875 11.125 C10.25873047 11.14175781 9.32996094 11.15851563 8.37304688 11.17578125 C7.48037109 11.18222656 6.58769531 11.18867187 5.66796875 11.1953125 C4.84578857 11.20578613 4.0236084 11.21625977 3.17651367 11.22705078 C1 11 1 11 -2 9 C-2.875 6.625 -2.875 6.625 -3 4 C-1.6875 1.6875 -1.6875 1.6875 0 0 Z " fill="#EEC438" transform="translate(55,91)"/>
<path d="M0 0 C5.48234992 1.38308524 8.75926365 3.95622145 12.875 7.625 C13.46796875 8.140625 14.0609375 8.65625 14.671875 9.1875 C16.12167893 10.45023246 17.56184761 11.72401316 19 13 C16 13 16 13 13 12 C12.67 11.34 12.34 10.68 12 10 C11.01 9.67 10.02 9.34 9 9 C8.67 8.34 8.34 7.68 8 7 C7.34 6.67 6.68 6.34 6 6 C4 5 4 5 3 3 C2.01 2.67 1.02 2.34 0 2 C0 1.34 0 0.68 0 0 Z " fill="#F0C847" transform="translate(407,207)"/>
<path d="M0 0 C3.08315385 -0.08733513 6.16598827 -0.14050127 9.25 -0.1875 C10.12269531 -0.21263672 10.99539062 -0.23777344 11.89453125 -0.26367188 C18.33323822 -0.33739753 18.33323822 -0.33739753 21.59375 1.3125 C23.67143526 3.80572232 23.27824249 5.86977198 23 9 C21.02 9.99 21.02 9.99 19 11 C19.66 8.36 20.32 5.72 21 3 C18.06855632 2.26713908 15.83174933 1.83956246 12.890625 1.68359375 C12.13652344 1.64169922 11.38242188 1.59980469 10.60546875 1.55664062 C9.43951172 1.49766602 9.43951172 1.49766602 8.25 1.4375 C7.06083984 1.37272461 7.06083984 1.37272461 5.84765625 1.30664062 C3.89862185 1.20097009 1.94933252 1.10002034 0 1 C0 0.67 0 0.34 0 0 Z " fill="#EDBF41" transform="translate(57,90)"/>
<path d="M0 0 C2.08432499 3.12648749 3.28558611 6.05730868 4.625 9.5625 C5.07101563 10.71878906 5.51703125 11.87507813 5.9765625 13.06640625 C7 16 7 16 7 18 C4.53199953 16.84826645 2.95216435 15.95216435 1 14 C0.69940057 11.63490639 0.50484988 9.25558119 0.375 6.875 C0.30023438 5.59367187 0.22546875 4.31234375 0.1484375 2.9921875 C0.09945312 2.00476563 0.05046875 1.01734375 0 0 Z " fill="#F6E27A" transform="translate(75,358)"/>
<path d="M0 0 C0.33 0 0.66 0 1 0 C0.67 5.28 0.34 10.56 0 16 C-0.66 16 -1.32 16 -2 16 C-2 17.98 -2 19.96 -2 22 C-2.66 22 -3.32 22 -4 22 C-4.33 22.99 -4.66 23.98 -5 25 C-6.69064725 21.6187055 -4.71185641 18.18978492 -3.625 14.75 C-2.09390018 9.84543298 -0.69972195 5.10959752 0 0 Z " fill="#F4CC4E" transform="translate(427,344)"/>
<path d="M0 0 C0.33 0 0.66 0 1 0 C1.02505615 0.64960693 1.0501123 1.29921387 1.07592773 1.96850586 C1.19313851 4.95831088 1.31528919 7.94789535 1.4375 10.9375 C1.47681641 11.95908203 1.51613281 12.98066406 1.55664062 14.03320312 C1.80720001 20.06590209 2.25643055 26.007705 3 32 C2.01 31.67 1.02 31.34 0 31 C0 20.77 0 10.54 0 0 Z " fill="#F8EA7C" transform="translate(71,321)"/>
<path d="M0 0 C0 0.66 0 1.32 0 2 C-0.99 2 -1.98 2 -3 2 C-3 1.34 -3 0.68 -3 0 C-5.29199177 0.14063135 -7.58359186 0.28765943 -9.875 0.4375 C-11.15117187 0.51871094 -12.42734375 0.59992188 -13.7421875 0.68359375 C-16.88300152 0.79206027 -16.88300152 0.79206027 -19 2 C-21.125 1.0625 -21.125 1.0625 -23 0 C-15.28754845 -2.68259184 -7.66686582 -3.22815403 0 0 Z " fill="#E39DAF" transform="translate(211,87)"/>
<path d="M0 0 C4.95019948 0.45001813 6.57260621 1.57260621 10 5 C11.99422795 5.36628677 13.99453311 5.70131344 16 6 C17.875 7.4375 17.875 7.4375 19 9 C19 9.66 19 10.32 19 11 C14.51947835 9.65651525 10.71711181 7.86858876 6.6875 5.5 C5.63949219 4.8915625 4.59148437 4.283125 3.51171875 3.65625 C1 2 1 2 0 0 Z " fill="#F7D84D" transform="translate(86,450)"/>
<path d="M0 0 C2.97 0.495 2.97 0.495 6 1 C1.60632035 4.95431169 -3.49527743 7.86631108 -9 10 C-9.66 9.67 -10.32 9.34 -11 9 C-10.67 8.01 -10.34 7.02 -10 6 C-5.545 5.505 -5.545 5.505 -1 5 C-0.67 3.35 -0.34 1.7 0 0 Z " fill="#F2BF25" transform="translate(404,452)"/>
<path d="M0 0 C0.66 0.33 1.32 0.66 2 1 C-0.97 6.61 -3.94 12.22 -7 18 C-8.25955231 14.22134307 -7.48087189 12.96588214 -6.0625 9.3125 C-5.49208984 7.82169922 -5.49208984 7.82169922 -4.91015625 6.30078125 C-4.45962891 5.16189453 -4.45962891 5.16189453 -4 4 C-3.34 4 -2.68 4 -2 4 C-2 3.01 -2 2.02 -2 1 C-1.34 0.67 -0.68 0.34 0 0 Z " fill="#F3CF52" transform="translate(243,274)"/>
<path d="M0 0 C0.578125 1.91015625 0.578125 1.91015625 1 4 C-0.25 5.4375 -0.25 5.4375 -2 7 C-2.7734375 8.3303125 -2.7734375 8.3303125 -3.5625 9.6875 C-4.036875 10.450625 -4.51125 11.21375 -5 12 C-5.66 12 -6.32 12 -7 12 C-7.33 13.65 -7.66 15.3 -8 17 C-8.99 17.33 -9.98 17.66 -11 18 C-9.48103632 13.56829827 -7.07360191 9.96975924 -4.375 6.1875 C-3.95476563 5.59001953 -3.53453125 4.99253906 -3.1015625 4.37695312 C-2.07220272 2.91479435 -1.0367177 1.45695101 0 0 Z " fill="#F8DF71" transform="translate(55,240)"/>
<path d="M0 0 C1.40980321 4.22940963 -0.07526585 6.08179119 -2 10 C-2.99387334 11.33790641 -3.9926892 12.67218122 -5 14 C-5.70514846 16.14733927 -5.70514846 16.14733927 -6 18 C-6.66 18 -7.32 18 -8 18 C-7.46520285 11.04763709 -3.77812873 5.6671931 0 0 Z " fill="#E0788F" transform="translate(117,97)"/>
<path d="M0 0 C0.66 0 1.32 0 2 0 C0.86299135 7.73465096 -1.10711152 14.73969251 -4 22 C-5.29595626 18.0862121 -4.3251114 16.00549665 -2.765625 12.234375 C-1.69632008 9.11375045 -1.44692092 6.06083084 -1.2109375 2.78515625 C-1 1 -1 1 0 0 Z " fill="#F9E376" transform="translate(314,361)"/>
<path d="M0 0 C-0.99 0.33 -1.98 0.66 -3 1 C-0.30468156 4.81763754 -0.30468156 4.81763754 3.6875 7.0625 C4.450625 7.371875 5.21375 7.68125 6 8 C6.8125 10.125 6.8125 10.125 7 12 C3.28954753 10.42219077 0.70093616 8.09296752 -2.25 5.375 C-3.14203125 4.55773437 -4.0340625 3.74046875 -4.953125 2.8984375 C-5.62859375 2.27195312 -6.3040625 1.64546875 -7 1 C-3.375 -1.125 -3.375 -1.125 0 0 Z " fill="#F9DD5D" transform="translate(78,437)"/>
<path d="M0 0 C-2.4581652 1.31281572 -4.91652422 2.62526612 -7.375 3.9375 C-8.42300781 4.49727539 -8.42300781 4.49727539 -9.4921875 5.06835938 C-14.7734375 7.88671875 -14.7734375 7.88671875 -17 9 C-16.9375 7.1875 -16.9375 7.1875 -16 5 C-13.69747517 3.93097061 -11.3627974 2.92824183 -9 2 C-8.67 1.34 -8.34 0.68 -8 0 C-4.71585695 -0.95067299 -3.30306592 -1.10102197 0 0 Z " fill="#F7E16C" transform="translate(132,239)"/>
<path d="M0 0 C4.35970831 1.34849837 8.31341438 3.04907846 12.375 5.125 C13.43460938 5.66382813 14.49421875 6.20265625 15.5859375 6.7578125 C16.38257813 7.16773438 17.17921875 7.57765625 18 8 C14.90279155 8.87840996 13.09354597 8.99435406 10 8 C10 7.34 10 6.68 10 6 C9.0925 5.71125 8.185 5.4225 7.25 5.125 C4.67797092 4.23468224 2.38653234 3.28505587 0 2 C0 1.34 0 0.68 0 0 Z " fill="#F5E075" transform="translate(116,415)"/>
<path d="M0 0 C0.33 0 0.66 0 1 0 C1.602537 6.02536998 1.602537 6.02536998 -0.11328125 8.80078125 C-1.34621853 10.25599455 -2.66808933 11.63479157 -4 13 C-4.66 12.67 -5.32 12.34 -6 12 C-4.43358249 7.69235185 -2.31663844 3.93828536 0 0 Z " fill="#F7C223" transform="translate(203,252)"/>
<path d="M0 0 C0.33 0.66 0.66 1.32 1 2 C2.32 1.67 3.64 1.34 5 1 C4 4 4 4 2 6 C4.64 6 7.28 6 10 6 C8.8125 7.5625 8.8125 7.5625 7 9 C3.65807308 8.75546876 2.39456443 8.39456443 0 6 C-0.125 2.875 -0.125 2.875 0 0 Z " fill="#F1C131" transform="translate(235,54)"/>
<path d="M0 0 C0.33 0 0.66 0 1 0 C1.28007599 5.50816123 1.24502045 8.38208629 -2 13 C-2.69822617 14.65369357 -3.37498605 16.31727014 -4 18 C-4.66 18 -5.32 18 -6 18 C-4 12 -2 6 0 0 Z " fill="#F8DF66" transform="translate(268,358)"/>
<path d="M0 0 C2 3 2 3 2 6 C2.99 6 3.98 6 5 6 C5 7.98 5 9.96 5 12 C1.36440339 8.56638098 -1.36113346 5.2026393 -4 1 C-2.68 0.67 -1.36 0.34 0 0 Z " fill="#F1BF23" transform="translate(407,262)"/>
<path d="M0 0 C0.66 0.33 1.32 0.66 2 1 C-2.03523352 5.81123996 -6.04467233 10.13242719 -11 14 C-10.52406444 9.71657993 -8.05238315 7.84426611 -5 5 C-4.071875 4.071875 -3.14375 3.14375 -2.1875 2.1875 C-1.1046875 1.1046875 -1.1046875 1.1046875 0 0 Z " fill="#F8C412" transform="translate(229,222)"/>
<path d="M0 0 C3.61109076 1.20369692 4.09173559 2.53482939 5.75195312 5.8203125 C6.06068359 6.45710938 6.36941406 7.09390625 6.6875 7.75 C7.00783203 8.37132812 7.32816406 8.99265625 7.65820312 9.6328125 C9.43550028 13.22530227 10.40620252 15.98396001 10 20 C7.8583899 16.78758486 6.15145449 13.44911254 4.4375 10 C4.12103516 9.3709375 3.80457031 8.741875 3.47851562 8.09375 C2.14433738 5.41972822 0.94641411 2.83924233 0 0 Z " fill="#EDC73E" transform="translate(412,274)"/>
<path d="M0 0 C5.31027254 1.46032495 9.46330032 3.98320986 14 7 C10.85135005 8.57432497 8.35512575 7.71895552 5 7 C3 4 3 4 3 2 C2.01 2 1.02 2 0 2 C0 1.34 0 0.68 0 0 Z " fill="#F4BD26" transform="translate(393,199)"/>
<path d="M0 0 C1.91595968 -0.08133791 3.83291932 -0.13934367 5.75 -0.1875 C7.35101563 -0.23970703 7.35101563 -0.23970703 8.984375 -0.29296875 C12 0 12 0 16 3 C10.72 2.67 5.44 2.34 0 2 C0 1.34 0 0.68 0 0 Z " fill="#E37A93" transform="translate(431,143)"/>
<path d="M0 0 C-2.59925496 1.19942605 -5.20345507 2.38472821 -7.8125 3.5625 C-8.55048828 3.90474609 -9.28847656 4.24699219 -10.04882812 4.59960938 C-10.76103516 4.91865234 -11.47324219 5.23769531 -12.20703125 5.56640625 C-12.8616333 5.86490479 -13.51623535 6.16340332 -14.19067383 6.47094727 C-16 7 -16 7 -19 6 C-17.68 5.67 -16.36 5.34 -15 5 C-15 4.34 -15 3.68 -15 3 C-13.4221875 2.566875 -13.4221875 2.566875 -11.8125 2.125 C-8.12939099 1.12134655 -8.12939099 1.12134655 -5.25 -0.1875 C-3 -1 -3 -1 0 0 Z " fill="#F6DC58" transform="translate(239,462)"/>
<path d="M0 0 C0 3.77910478 -0.99703962 4.46106101 -3.5 7.1875 C-4.1496875 7.90292969 -4.799375 8.61835938 -5.46875 9.35546875 C-5.9740625 9.89816406 -6.479375 10.44085938 -7 11 C-8.32 10.67 -9.64 10.34 -11 10 C-5.555 5.05 -5.555 5.05 0 0 Z " fill="#F8C20E" transform="translate(272,437)"/>
<path d="M0 0 C0.33 0.66 0.66 1.32 1 2 C1.66 2 2.32 2 3 2 C3 2.66 3 3.32 3 4 C3.66 4 4.32 4 5 4 C5 6.97 5 9.94 5 13 C4.34 13 3.68 13 3 13 C2.49487756 11.39743892 1.99608373 9.79288208 1.5 8.1875 C1.2215625 7.29417969 0.943125 6.40085937 0.65625 5.48046875 C0 3 0 3 0 0 Z " fill="#F4C329" transform="translate(184,361)"/>
<path d="M0 0 C1.32 0.66 2.64 1.32 4 2 C1.36 4.31 -1.28 6.62 -4 9 C-4.33 7.68 -4.66 6.36 -5 5 C-3.6875 3.25 -3.6875 3.25 -2 2 C-1.34 2 -0.68 2 0 2 C0 1.34 0 0.68 0 0 Z " fill="#E48096" transform="translate(214,161)"/>
<path d="M0 0 C1.98 0 3.96 0 6 0 C2.29909479 3.9252025 -1.54959656 6.94580156 -6 10 C-6 8.68 -6 7.36 -6 6 C-4.68 6 -3.36 6 -2 6 C-2 5.01 -2 4.02 -2 3 C-1.34 2.67 -0.68 2.34 0 2 C0 1.34 0 0.68 0 0 Z " fill="#F2CA3E" transform="translate(418,442)"/>
<path d="M0 0 C0.99 1.32 1.98 2.64 3 4 C2 6 2 6 0 7 C-1.12224855 8.88013106 -1.12224855 8.88013106 -2.125 11.0625 C-2.47820313 11.79597656 -2.83140625 12.52945312 -3.1953125 13.28515625 C-3.59363281 14.13400391 -3.59363281 14.13400391 -4 15 C-5 13 -5 13 -4.00390625 9.9609375 C-3.52824219 8.77757812 -3.05257812 7.59421875 -2.5625 6.375 C-2.08941406 5.18648438 -1.61632813 3.99796875 -1.12890625 2.7734375 C-0.75636719 1.85820312 -0.38382813 0.94296875 0 0 Z " fill="#F8DB54" transform="translate(36,273)"/>
<path d="M0 0 C4.28477792 2.30718811 7.72291137 4.32966073 11 8 C3.375 6.125 3.375 6.125 0 5 C0 3.33333333 0 1.66666667 0 0 Z M-1 6 C1 7 1 7 1 7 Z " fill="#E5829E" transform="translate(214,88)"/>
<path d="M0 0 C0.33 0.66 0.66 1.32 1 2 C-1.01577062 6.50584021 -3.83128248 8.49876949 -8 11 C-8.66 10.67 -9.32 10.34 -10 10 C-6.7 6.7 -3.4 3.4 0 0 Z " fill="#F3C73F" transform="translate(404,396)"/>
<path d="M0 0 C0 0.66 0 1.32 0 2 C0.66 2.33 1.32 2.66 2 3 C1.67 3.99 1.34 4.98 1 6 C0.01 4.68 -0.98 3.36 -2 2 C-5.39914975 3.13304992 -6.05254451 4.12518475 -8 7 C-7.74438677 4.6568787 -7.40729228 2.32156597 -7 0 C-4.3333581 -1.33332095 -2.83319697 -0.67102033 0 0 Z " fill="#F3CF45" transform="translate(253,267)"/>
<path d="M0 0 C0.66 0.33 1.32 0.66 2 1 C1.42647107 4.87132028 -0.48704352 7.08172796 -3 10 C-3.75 7.8125 -3.75 7.8125 -4 5 C-2.0625 2.1875 -2.0625 2.1875 0 0 Z " fill="#F9DD50" transform="translate(292,410)"/>
<path d="M0 0 C3.18005028 3.88672813 6.10554447 7.89952133 9 12 C8.67 12.66 8.34 13.32 8 14 C5 12 5 12 4 9 C3.01 8.67 2.02 8.34 1 8 C0.67 5.36 0.34 2.72 0 0 Z " fill="#F7DA54" transform="translate(84,380)"/>
<path d="M0 0 C2 3 2 3 2 5 C3.32 4.67 4.64 4.34 6 4 C5.95875 4.763125 5.9175 5.52625 5.875 6.3125 C5.77919176 9.22718416 5.77919176 9.22718416 8 12 C4.19197555 10.5039904 2.30575443 8.33936849 0 5 C-0.8125 2.75 -0.8125 2.75 -1 1 C-0.67 0.67 -0.34 0.34 0 0 Z " fill="#EE8882" transform="translate(334,76)"/>
<path d="M0 0 C1.32 1.65 2.64 3.3 4 5 C3.01 6.485 3.01 6.485 2 8 C-0.1640625 8.29296875 -0.1640625 8.29296875 -2.625 8.1875 C-3.44226563 8.16042969 -4.25953125 8.13335937 -5.1015625 8.10546875 C-5.72804687 8.07066406 -6.35453125 8.03585937 -7 8 C-4.08235 6.0549 -2.37462715 5.54723683 1 5 C0.34 3.68 -0.32 2.36 -1 1 C-0.67 0.67 -0.34 0.34 0 0 Z " fill="#F4D751" transform="translate(211,418)"/>
<path d="M0 0 C0.66 0.33 1.32 0.66 2 1 C1.67 1.66 1.34 2.32 1 3 C0.01 3 -0.98 3 -2 3 C-2 3.66 -2 4.32 -2 5 C-4.25 6.6875 -4.25 6.6875 -7 8 C-9.171875 7.58203125 -9.171875 7.58203125 -11 7 C-9.21475351 5.80286983 -7.4215972 4.61752721 -5.625 3.4375 C-4.62726563 2.77621094 -3.62953125 2.11492187 -2.6015625 1.43359375 C-1.74304688 0.96050781 -0.88453125 0.48742187 0 0 Z " fill="#F8DB5A" transform="translate(99,202)"/>
<path d="M0 0 C1.32 0.33 2.64 0.66 4 1 C4 2.32 4 3.64 4 5 C4.99 5.33 5.98 5.66 7 6 C5 7 5 7 3.0546875 6.44140625 C2.33539063 6.15136719 1.61609375 5.86132812 0.875 5.5625 C0.15054687 5.27503906 -0.57390625 4.98757812 -1.3203125 4.69140625 C-1.87460937 4.46324219 -2.42890625 4.23507813 -3 4 C-2.01 3.67 -1.02 3.34 0 3 C0 2.01 0 1.02 0 0 Z " fill="#F7C52C" transform="translate(363,232)"/>
<path d="M0 0 C1.88671875 0.2265625 1.88671875 0.2265625 4 1 C5.08203125 2.9609375 5.08203125 2.9609375 5.8125 5.375 C6.06644531 6.16648437 6.32039063 6.95796875 6.58203125 7.7734375 C7 10 7 10 6 13 C4.99491199 11.21118264 3.99607264 9.41885304 3 7.625 C2.1646875 6.12839844 2.1646875 6.12839844 1.3125 4.6015625 C0 2 0 2 0 0 Z " fill="#FAE571" transform="translate(255,273)"/>
<path d="M0 0 C0 0.33 0 0.66 0 1 C-12.66970387 1.18451025 -12.66970387 1.18451025 -18 0 C-18 -0.33 -18 -0.66 -18 -1 C-11.6496923 -2.41117949 -6.30338787 -1.3792223 0 0 Z " fill="#F8CD5E" transform="translate(203,186)"/>
<path d="M0 0 C3.82669043 3.42388092 5.72278474 6.00724943 7 11 C6.34 11 5.68 11 5 11 C4.67 9.35 4.34 7.7 4 6 C2.68 6 1.36 6 0 6 C0 4.02 0 2.04 0 0 Z " fill="#E487A1" transform="translate(225,96)"/>
<path d="M0 0 C-1.44950455 3.7910119 -3.15172566 7.3874638 -5 11 C-5.33 11 -5.66 11 -6 11 C-6.21952523 7.15830842 -5.72664863 4.45329726 -4 1 C-2 0 -2 0 0 0 Z " fill="#F8DA53" transform="translate(304,395)"/>
<path d="M0 0 C0.66 0 1.32 0 2 0 C1.33501617 4.38889325 -0.18757677 7.9811485 -2 12 C-2.33 12 -2.66 12 -3 12 C-2.67 9.03 -2.34 6.06 -2 3 C-1.34 3 -0.68 3 0 3 C0 2.01 0 1.02 0 0 Z " fill="#E4869D" transform="translate(233,134)"/>
<path d="M0 0 C0.66 0.33 1.32 0.66 2 1 C-0.31 3.97 -2.62 6.94 -5 10 C-5.66 8.68 -6.32 7.36 -7 6 C-6.01 6 -5.02 6 -4 6 C-4 5.34 -4 4.68 -4 4 C-3.34 4 -2.68 4 -2 4 C-2 3.34 -2 2.68 -2 2 C-1.34 2 -0.68 2 0 2 C0 1.34 0 0.68 0 0 Z " fill="#F4C845" transform="translate(449,412)"/>
<path d="M0 0 C1.65 0 3.3 0 5 0 C2.61042731 3.24299151 0.7952131 5.50902342 -3 7 C-3 5.68 -3 4.36 -3 3 C-2.01 3 -1.02 3 0 3 C0 2.01 0 1.02 0 0 Z " fill="#E07885" transform="translate(196,177)"/>
<path d="M0 0 C3 1 3 1 5 3 C5.66 3 6.32 3 7 3 C7.33 4.65 7.66 6.3 8 8 C7.01 8 6.02 8 5 8 C0 2.65116279 0 2.65116279 0 0 Z " fill="#E07D99" transform="translate(119,153)"/>
<path d="M0 0 C0.66 0 1.32 0 2 0 C1.42365861 4.75481646 -0.55068521 7.97048212 -3 12 C-3.33 12 -3.66 12 -4 12 C-4 10.35 -4 8.7 -4 7 C-3.34 7 -2.68 7 -2 7 C-1.34 4.69 -0.68 2.38 0 0 Z " fill="#F6CC58" transform="translate(455,400)"/>
<path d="M0 0 C0.33 1.32 0.66 2.64 1 4 C0.01 4.33 -0.98 4.66 -2 5 C-3.43948118 6.62882397 -3.43948118 6.62882397 -4.6875 8.5625 C-5.12449219 9.20316406 -5.56148437 9.84382812 -6.01171875 10.50390625 C-6.33785156 10.99761719 -6.66398438 11.49132812 -7 12 C-7 8.41634204 -6.22556909 7.63354929 -4.0625 4.875 C-3.51722656 4.17117187 -2.97195312 3.46734375 -2.41015625 2.7421875 C-1 1 -1 1 0 0 Z " fill="#EDC32B" transform="translate(213,239)"/>
<path d="M0 0 C1.3303125 0.4021875 1.3303125 0.4021875 2.6875 0.8125 C2.3575 1.4725 2.0275 2.1325 1.6875 2.8125 C-0.5625 3.375 -0.5625 3.375 -3.3125 3.8125 C-4.240625 3.998125 -5.16875 4.18375 -6.125 4.375 C-6.846875 4.519375 -7.56875 4.66375 -8.3125 4.8125 C-4.12788462 -0.23365385 -4.12788462 -0.23365385 0 0 Z " fill="#F3C438" transform="translate(261.3125,32.1875)"/>
<path d="M0 0 C3.36591866 1.44253657 5.51047079 3.33264727 8 6 C6.02 5.34 4.04 4.68 2 4 C1.67 4.66 1.34 5.32 1 6 C0.34 5.34 -0.32 4.68 -1 4 C-0.625 1.875 -0.625 1.875 0 0 Z " fill="#F4DA52" transform="translate(108,409)"/>
<path d="M0 0 C1.25127906 3.54667178 0.72285053 5.72253438 -0.4375 9.25 C-0.72496094 10.14203125 -1.01242187 11.0340625 -1.30859375 11.953125 C-1.53675781 12.62859375 -1.76492188 13.3040625 -2 14 C-2.33 14 -2.66 14 -3 14 C-3 11.36 -3 8.72 -3 6 C-2.34 6 -1.68 6 -1 6 C-0.67 4.02 -0.34 2.04 0 0 Z " fill="#F5C431" transform="translate(470,364)"/>
<path d="M0 0 C0.66 0.33 1.32 0.66 2 1 C-0.97 3.97 -3.94 6.94 -7 10 C-7.66 9.67 -8.32 9.34 -9 9 C-6.21000549 5.51250686 -3.74764169 2.49842779 0 0 Z " fill="#FCD225" transform="translate(261,253)"/>
<path d="M0 0 C6.0546875 -0.1953125 6.0546875 -0.1953125 8 0 C8.66 0.66 9.32 1.32 10 2 C6.7 2.33 3.4 2.66 0 3 C0 2.01 0 1.02 0 0 Z " fill="#FABA0F" transform="translate(352,187)"/>
<path d="M0 0 C5.57142857 5.14285714 5.57142857 5.14285714 6 9 C3.53199953 7.84826645 1.95216435 6.95216435 0 5 C-0.125 2.375 -0.125 2.375 0 0 Z " fill="#F6DA55" transform="translate(76,367)"/>
<path d="M0 0 C1.18414294 3.55242882 0.69535532 4.69830562 -0.4375 8.1875 C-0.72496094 9.08855469 -1.01242188 9.98960937 -1.30859375 10.91796875 C-1.53675781 11.60503906 -1.76492187 12.29210937 -2 13 C-2.33 13 -2.66 13 -3 13 C-2.88652381 11.02013918 -2.7589065 9.04108402 -2.625 7.0625 C-2.55539063 5.96035156 -2.48578125 4.85820312 -2.4140625 3.72265625 C-2.27742187 2.82417969 -2.14078125 1.92570312 -2 1 C-1.34 0.67 -0.68 0.34 0 0 Z " fill="#F4C33C" transform="translate(233,294)"/>
<path d="M0 0 C4.37859255 0.50522222 6.81651224 3.17827222 10 6 C7 6 7 6 4 5 C3.67 4.34 3.34 3.68 3 3 C2.01 2.67 1.02 2.34 0 2 C0 1.34 0 0.68 0 0 Z " fill="#F0C339" transform="translate(416,214)"/>
<path d="M0 0 C1.46067199 0.45082469 2.91848032 0.91093537 4.375 1.375 C5.18710938 1.63023437 5.99921875 1.88546875 6.8359375 2.1484375 C9 3 9 3 11 5 C9.54052295 4.93993922 8.08220728 4.8511311 6.625 4.75 C5.81289062 4.70359375 5.00078125 4.6571875 4.1640625 4.609375 C2 4 2 4 0.7109375 1.953125 C0.47632813 1.30859375 0.24171875 0.6640625 0 0 Z " fill="#F9DB58" transform="translate(224,193)"/>
<path d="M0 0 C0.99 0.33 1.98 0.66 3 1 C3 1.66 3 2.32 3 3 C2.030625 3.12375 1.06125 3.2475 0.0625 3.375 C-0.948125 3.58125 -1.95875 3.7875 -3 4 C-3.33 4.66 -3.66 5.32 -4 6 C-4.33 5.01 -4.66 4.02 -5 3 C-2.6875 1.4375 -2.6875 1.4375 0 0 Z " fill="#E37893" transform="translate(184,89)"/>
<path d="M0 0 C0.99 0.33 1.98 0.66 3 1 C2.01 2.485 2.01 2.485 1 4 C0.01 4 -0.98 4 -2 4 C-2.33 5.32 -2.66 6.64 -3 8 C-3.66 7.67 -4.32 7.34 -5 7 C-3.47793991 4.37098712 -2.15634036 2.15634036 0 0 Z " fill="#F5BA23" transform="translate(252,37)"/>
<path d="M0 0 C0.33 0.99 0.66 1.98 1 3 C1.66 3 2.32 3 3 3 C3.33 4.65 3.66 6.3 4 8 C1.95880212 6.38405168 -0.04072937 4.7143618 -2 3 C-2 2.34 -2 1.68 -2 1 C-1.34 0.67 -0.68 0.34 0 0 Z " fill="#F8DD58" transform="translate(60,422)"/>
<path d="M0 0 C6 7.71428571 6 7.71428571 6 11 C5.34 11 4.68 11 4 11 C2.95107762 9.36368108 1.95093297 7.69514137 1 6 C0.67 5.67 0.34 5.34 0 5 C-0.04063832 3.33382885 -0.042721 1.66611905 0 0 Z " fill="#F6E05D" transform="translate(298,255)"/>
<path d="M0 0 C3.63 1.32 7.26 2.64 11 4 C5.86057616 5.28485596 4.62164416 4.22194431 0 2 C0 1.34 0 0.68 0 0 Z " fill="#F3C434" transform="translate(378,192)"/>
<path d="M0 0 C0.33 1.65 0.66 3.3 1 5 C-4.75 3.25 -4.75 3.25 -7 1 C-2.25 0 -2.25 0 0 0 Z " fill="#F3BF2B" transform="translate(268,460)"/>
<path d="M0 0 C4.7517398 0.43197635 6.92000054 1.32769295 10 5 C9.67 5.66 9.34 6.32 9 7 C7.4972763 6.02501855 5.99788037 5.04490611 4.5 4.0625 C3.6646875 3.51722656 2.829375 2.97195313 1.96875 2.41015625 C1.3190625 1.94480469 0.669375 1.47945313 0 1 C0 0.67 0 0.34 0 0 Z " fill="#F9E379" transform="translate(86,450)"/>
<path d="M0 0 C0.33 0 0.66 0 1 0 C1.36923077 7.50769231 1.36923077 7.50769231 -0.5 10 C-0.995 10.33 -1.49 10.66 -2 11 C-1.125 3.375 -1.125 3.375 0 0 Z " fill="#F8DB56" transform="translate(30,290)"/>
<path d="M0 0 C0.99 0 1.98 0 3 0 C5.27678571 6.96428571 5.27678571 6.96428571 4 11 C3.32880451 9.5437455 2.66318193 8.08492133 2 6.625 C1.62875 5.81289063 1.2575 5.00078125 0.875 4.1640625 C0 2 0 2 0 0 Z " fill="#FAE278" transform="translate(262,286)"/>
<path d="M0 0 C0.66 0.33 1.32 0.66 2 1 C0.35 2.65 -1.3 4.3 -3 6 C-3.99 5.67 -4.98 5.34 -6 5 C-4.02 3.35 -2.04 1.7 0 0 Z " fill="#F5DD67" transform="translate(86,210)"/>
<path d="M0 0 C-1.29299694 2.88437779 -2.65941363 4.87219421 -5 7 C-5 5.02 -5 3.04 -5 1 C-2 0 -2 0 0 0 Z " fill="#E08498" transform="translate(223,155)"/>
<path d="M0 0 C1.61949011 2.57213134 2.04408751 3.67669159 1.625 6.75 C1.41875 7.4925 1.2125 8.235 1 9 C0.34 8.67 -0.32 8.34 -1 8 C-1.125 2.25 -1.125 2.25 0 0 Z " fill="#E3889C" transform="translate(234,112)"/>
<path d="M0 0 C-2.97 2.475 -2.97 2.475 -6 5 C-6 3.35 -6 1.7 -6 0 C-3.50907189 -1.24546405 -2.58919267 -0.7767578 0 0 Z " fill="#F4C135" transform="translate(251,55)"/>
<path d="M0 0 C2.97 0.495 2.97 0.495 6 1 C1.25 4.875 1.25 4.875 -1 6 C-0.67 4.02 -0.34 2.04 0 0 Z " fill="#F5CF48" transform="translate(404,452)"/>
<path d="M0 0 C0.33 0.66 0.66 1.32 1 2 C0.0625 4.625 0.0625 4.625 -1 7 C-1.66 7 -2.32 7 -3 7 C-3 7.66 -3 8.32 -3 9 C-3.66 8.67 -4.32 8.34 -5 8 C-3.35 5.36 -1.7 2.72 0 0 Z " fill="#FAE78D" transform="translate(261,376)"/>
<path d="M0 0 C0.66 0 1.32 0 2 0 C1.74438677 2.3431213 1.40729228 4.67843403 1 7 C0.01 7.495 0.01 7.495 -1 8 C-1.04241723 5.66705225 -1.04092937 3.33297433 -1 1 C-0.67 0.67 -0.34 0.34 0 0 Z " fill="#F8DD64" transform="translate(314,361)"/>
<path d="M0 0 C1.98 0 3.96 0 6 0 C4.3545622 1.68762851 2.68711423 3.3540349 1 5 C0.67 5 0.34 5 0 5 C0 3.35 0 1.7 0 0 Z " fill="#DE7189" transform="translate(202,171)"/>
<path d="M0 0 C0.33 0 0.66 0 1 0 C1 2.31 1 4.62 1 7 C-0.65 6.67 -2.3 6.34 -4 6 C-3.525625 5.566875 -3.05125 5.13375 -2.5625 4.6875 C-0.76313043 2.97690387 -0.76313043 2.97690387 0 0 Z " fill="#FBB90B" transform="translate(106,54)"/>
</svg>
